# Made in Blockbench 4.9.4
mtllib StoneItem.mtl

o Stone
v 0.1875 0.5625 0.1875
v 0.1875 0.4375 -0.1875
v 0.1875 0.0625 0.1875
v 0.1875 0.0625 -0.1875
v -0.1875 0.4375 0.1875
v -0.1875 0.375 -0.1875
v -0.1875 0 0.1875
v -0.1875 0 -0.1875
v 0.23125000000000007 0.25 -0.26875
v -0.26875 0.25 -0.26875
v -0.20625 0.25 0.26875
v 0.26875 0.25 0.26875
v 0.33125 0.25 0
v 0.1875 0 0
v -0.1875 0 0
v -0.26875 0.25 0
v -0.1875 0.4375 0
v 0.1875 0.5625 0
v 0 0.25 -0.26875
v 0 0.4375 -0.1875
v 0 0.5625 0
v 0 0.5625 0.1875
v 0 0.25 0.33125
v 0 0 0.1875
v 0 0 0
v 0 0 -0.1875
vt 0.3531365201736796 0.879640625
vt 0.4452083951736796 0.84375
vt 0.4587396451736796 0.98730625
vt 0.3208833951736796 0.984653125
vt 0.7766228894982372 0.5592784883368431
vt 0.6390021105017627 0.5689382160138605
vt 0.6390021105017627 0.4375
vt 0.7305392764188703 0.43750006738848213
vt 0.006164062499999984 0.557493645803115
vt 0.11883593749999999 0.557493645803115
vt 0.1188359375 0.651243645803115
vt 0.006164062499999998 0.6512436458031151
vt 0.26308906249999997 0.5
vt 0.35683906249999997 0.5
vt 0.35683906249999997 0.59375
vt 0.26308906249999997 0.59375
vt 0.5142739581446921 0.25000026870735237
vt 0.6080239581446921 0.25000026870735237
vt 0.6080239581446921 0.3941908937073524
vt 0.5048989581446921 0.3786158937073524
vt 0.8058964220354992 0.787684375
vt 0.6715214220354991 0.787684375
vt 0.6715214220354991 0.65625
vt 0.7652714220354991 0.65625
vt 0.8607777870758019 0.9713241237034336
vt 0.7662079377952179 0.99999948373715
vt 0.7662079377952179 0.897825
vt 0.8994170622047821 0.8978229713585717
vt 0.234375 0.375
vt 0.140625 0.375
vt 0.140625 0.272825
vt 0.275 0.28525
vt 0.2543330709814889 0.653572551924253
vt 0.36129192901851115 0.6405135077524255
vt 0.3612919290185111 0.8125
vt 0.26397127339690774 0.7557199043945908
vt 0.008078244384297661 0.828784375
vt 0.14603761938429766 0.828784375
vt 0.12975636938429766 1
vt 0.038443869384297655 0.99131875
vt 0.59375 0.9589338472102874
vt 0.4587396451736796 0.98730625
vt 0.44520855065645226 0.8437516495537207
vt 0.5423108799660307 0.861811611152979
vt 0.26308906249999997 0.40625
vt 0.35683906249999997 0.40625
vt 0.35683906249999997 0.5
vt 0.26308906249999997 0.5
vt 0.5452521105017627 0.4375
vt 0.6390021105017627 0.4375
vt 0.6390021105017627 0.568934375
vt 0.5046271105017628 0.568934375
vt 0.0062500000000000056 0.272825
vt 0.140625 0.272825
vt 0.140625 0.375
vt 0.046875 0.346325
vt 0.011630349911776222 0.6859107142754004
vt 0.11883593750000002 0.6512443365901446
vt 0.11883593750000002 0.7639155208031151
vt 0.024241365986202162 0.78125
vt 0.23201535849102561 0.9526889468682783
vt 0.12975636938429766 1
vt 0.14603746637691203 0.8287859840444617
vt 0.28125 0.8547597045986763
vt 0.6318329377952179 0.897825
vt 0.7662079377952179 0.897825
vt 0.7662079377952179 1
vt 0.6724579377952179 1
vt 0.21258593750000002 0.7639155208031151
vt 0.11883593750000002 0.7639155208031151
vt 0.1188359375 0.651243645803115
vt 0.21258593750000002 0.651243645803115
vt 0.21258593750000002 0.651243645803115
vt 0.1188359375 0.651243645803115
vt 0.1188359375 0.557493645803115
vt 0.21258593750000002 0.557493645803115
vt 0.4550419290185111 0.8125
vt 0.3612919290185111 0.8125
vt 0.3612919290185111 0.6405125
vt 0.4956669290185111 0.653571875
vt 0.7451010418553079 0.3786132728433226
vt 0.6080239581446921 0.3941908937073524
vt 0.6080239581446921 0.25
vt 0.7030030146366915 0.2770924970831795
vt 0.45566093750000003 0.59375
vt 0.35683906249999997 0.59375
vt 0.35683906249999997 0.5
vt 0.4457765625 0.5
vt 0.45058906249999997 0.5
vt 0.35683906249999997 0.5
vt 0.35683906249999997 0.40625
vt 0.45058906249999997 0.40625
vt 0.5772768010306357 0.6859700365377619
vt 0.6715214220354991 0.65625
vt 0.6715214220354991 0.7876853340287535
vt 0.5378535779645008 0.7876860223425214
vn 0.8551816785939363 -0.49172946519151334 0.16390982173050445
vn -0.9285934575411985 -0.3017928737008895 0.21595196687004617
vn -0.5547001962252291 0.8320502943378438 0
vn 0 -1 0
vn 0 -0.4984711242580828 0.8669063030575354
vn 0 -0.30908607233755814 -0.9510340687309482
vn -0.13138688202454132 0.394160646073624 -0.9096014909391325
vn -0.9175556253099242 0.3976074376343004 0
vn -0.26542549923520714 0.4029159078390444 0.8759041474761836
vn 0.8888684207405099 0.4088794735406345 0.20671358621872324
vn 0.8250448167870076 -0.4744007696525293 -0.30699342019981657
vn 0 -1 0
vn -0.9510340687309483 -0.30908607233755814 0
vn -0.9175556253099243 0.3976074376343005 0
vn -0.485071250072666 0.727606875108999 -0.485071250072666
vn 0.8751601568082705 0.4025736721318044 -0.2683824480878696
vn 0 0.39760743763430045 -0.9175556253099243
vn 0 0.8320502943378438 -0.5547001962252291
vn 0 1 0
vn 0 0.4179056082321443 0.9084904526785746
vn 0.19762978517604318 -0.4886396438477667 0.8498080762569856
vn 0.316227766016838 -0.948683298050514 0
vn 0 -1 0
vn 0.1024861857628567 -0.3074585572885701 -0.9460263301186773
usemtl m_2ebf0541-a682-3165-d71c-f034cf7c22e4
f 3/1/1 14/2/1 13/3/1 12/4/1
f 11/5/2 16/6/2 15/7/2 7/8/2
f 5/9/3 22/10/3 21/11/3 17/12/3
f 15/13/4 25/14/4 24/15/4 7/16/4
f 7/17/5 24/18/5 23/19/5 11/20/5
f 10/21/6 19/22/6 26/23/6 8/24/6
f 6/25/7 20/26/7 19/27/7 10/28/7
f 5/29/8 17/30/8 16/31/8 11/32/8
f 11/33/9 23/34/9 22/35/9 5/36/9
f 12/37/10 13/38/10 18/39/10 1/40/10
f 9/41/11 13/42/11 14/43/11 4/44/11
f 8/45/12 26/46/12 25/47/12 15/48/12
f 8/49/13 15/50/13 16/51/13 10/52/13
f 10/53/14 16/54/14 17/55/14 6/56/14
f 17/57/15 21/58/15 20/59/15 6/60/15
f 2/61/16 18/62/16 13/63/16 9/64/16
f 9/65/17 19/66/17 20/67/17 2/68/17
f 2/69/18 20/70/18 21/71/18 18/72/18
f 18/73/19 21/74/19 22/75/19 1/76/19
f 1/77/20 22/78/20 23/79/20 12/80/20
f 12/81/21 23/82/21 24/83/21 3/84/21
f 3/85/22 24/86/22 25/87/22 14/88/22
f 14/89/23 25/90/23 26/91/23 4/92/23
f 4/93/24 26/94/24 19/95/24 9/96/24