# Made in Blockbench 4.9.4
mtllib WoodSword.mtl

o cylinder
v 2.5673907444456743e-17 0 -5.204170427930421e-17
v 2.5673907444456743e-17 0.3125 -5.204170427930421e-17
v 0.015533008588991093 0 0.031249999999999938
v 0.015533008588991093 0.3125 0.031249999999999938
v 0.03750000000000002 0 0.012944173824159171
v 0.03750000000000002 0.3125 0.012944173824159171
v 0.03750000000000002 0 -0.01294417382415927
v 0.03750000000000002 0.3125 -0.01294417382415927
v 0.015533008588991095 0 -0.03125000000000005
v 0.015533008588991095 0.3125 -0.03125000000000005
v -0.015533008588991037 0 -0.03125000000000005
v -0.015533008588991037 0.3125 -0.03125000000000005
v -0.037499999999999964 0 -0.012944173824159291
v -0.037499999999999964 0.3125 -0.012944173824159291
v -0.037499999999999964 0 0.012944173824159176
v -0.037499999999999964 0.3125 0.012944173824159176
v -0.015533008588991067 0 0.031249999999999934
v -0.015533008588991067 0.3125 0.031249999999999934
vt 0.6046875 0.740846875
vt 0.593703125 0.75
vt 0.5859375 0.734375
vt 0.4375 0.65625
vt 0.453125 0.65625
vt 0.453125 0.8125
vt 0.4375 0.8125
vt 0.593703125 0.65625
vt 0.6046875 0.665403125
vt 0.5859375 0.671875
vt 0.6046875 0.727903125
vt 0.6046875 0.740846875
vt 0.5859375 0.734375
vt 0.25 0.65625
vt 0.265625 0.65625
vt 0.265625 0.8125
vt 0.25 0.8125
vt 0.6046875 0.665403125
vt 0.6046875 0.678346875
vt 0.5859375 0.671875
vt 0.593703125 0.71875
vt 0.6046875 0.727903125
vt 0.5859375 0.734375
vt 0.375 0.46875
vt 0.390625 0.46875
vt 0.390625 0.625
vt 0.375 0.625
vt 0.6046875 0.678346875
vt 0.593703125 0.6875
vt 0.5859375 0.671875
vt 0.578171875 0.71875
vt 0.593703125 0.71875
vt 0.5859375 0.734375
vt 0.3125 0.65625
vt 0.328125 0.65625
vt 0.328125 0.8125
vt 0.3125 0.8125
vt 0.593703125 0.6875
vt 0.578171875 0.6875
vt 0.5859375 0.671875
vt 0.5671875 0.727903125
vt 0.578171875 0.71875
vt 0.5859375 0.734375
vt 0.4375 0.84375
vt 0.453125 0.84375
vt 0.453125 1
vt 0.4375 1
vt 0.578171875 0.6875
vt 0.5671875 0.678346875
vt 0.5859375 0.671875
vt 0.5671875 0.740846875
vt 0.5671875 0.727903125
vt 0.5859375 0.734375
vt 0.375 0.65625
vt 0.390625 0.65625
vt 0.390625 0.8125
vt 0.375 0.8125
vt 0.5671875 0.678346875
vt 0.5671875 0.665403125
vt 0.5859375 0.671875
vt 0.578171875 0.75
vt 0.5671875 0.740846875
vt 0.5859375 0.734375
vt 0.3125 0.46875
vt 0.328125 0.46875
vt 0.328125 0.625
vt 0.3125 0.625
vt 0.5671875 0.665403125
vt 0.578171875 0.65625
vt 0.5859375 0.671875
vt 0.593703125 0.75
vt 0.578171875 0.75
vt 0.5859375 0.734375
vt 0.25 0.46875
vt 0.265625 0.46875
vt 0.265625 0.625
vt 0.25 0.625
vt 0.578171875 0.65625
vt 0.593703125 0.65625
vt 0.5859375 0.671875
vn 0 -1 0
vn 0.6401843996644798 0 0.7682212795973761
vn 0 1 0
vn 0 -1 0
vn 1 0 0
vn 0 1 0
vn 0 -1 0
vn 0.6401843996644799 0 -0.7682212795973757
vn 0 1 0
vn 0 -1 0
vn 0 0 -1
vn 0 1 0
vn 0 -1 0
vn -0.6401843996644796 0 -0.7682212795973762
vn 0 1 0
vn 0 -1 0
vn -1 0 0
vn 0 1 0
vn 0 -1 0
vn -0.64018439966448 0 0.7682212795973759
vn 0 1 0
vn 0 -1 0
vn -1.116798118045387e-16 0 1
vn 0 1 0
usemtl m_4594afe3-69e3-107a-35bb-41956cc76fc5
f 5/1/1 3/2/1 1/3/1
f 3/4/2 5/5/2 6/6/2 4/7/2
f 4/8/3 6/9/3 2/10/3
f 7/11/4 5/12/4 1/13/4
f 5/14/5 7/15/5 8/16/5 6/17/5
f 6/18/6 8/19/6 2/20/6
f 9/21/7 7/22/7 1/23/7
f 7/24/8 9/25/8 10/26/8 8/27/8
f 8/28/9 10/29/9 2/30/9
f 11/31/10 9/32/10 1/33/10
f 9/34/11 11/35/11 12/36/11 10/37/11
f 10/38/12 12/39/12 2/40/12
f 13/41/13 11/42/13 1/43/13
f 11/44/14 13/45/14 14/46/14 12/47/14
f 12/48/15 14/49/15 2/50/15
f 15/51/16 13/52/16 1/53/16
f 13/54/17 15/55/17 16/56/17 14/57/17
f 14/58/18 16/59/18 2/60/18
f 17/61/19 15/62/19 1/63/19
f 15/64/20 17/65/20 18/66/20 16/67/20
f 16/68/21 18/69/21 2/70/21
f 3/71/22 17/72/22 1/73/22
f 17/74/23 3/75/23 4/76/23 18/77/23
f 18/78/24 4/79/24 2/80/24
o cuboid
v 0.15625 0.3312499999999995 0.023076923076923064
v 0.15625 0.3312499999999995 -0.023076923076923064
v 0.15625 0.2687499999999997 0.023076923076923064
v 0.15625 0.2687499999999997 -0.023076923076923064
v -0.15625 0.3312499999999995 0.023076923076923064
v -0.15625 0.3312499999999995 -0.023076923076923064
v -0.15625 0.2687499999999997 0.023076923076923064
v -0.15625 0.2687499999999997 -0.023076923076923064
v 0 0.3312499999999995 0.04999999999999999
v 0 0.2687499999999997 0.04999999999999999
v 0 0.2687499999999997 -0.04999999999999999
v 0 0.3312499999999995 -0.04999999999999999
vt 0.375 0.4375
vt 0.34375 0.4375
vt 0.34375 0.40625
vt 0.375 0.40625
vt 0.59375 0.59375
vt 0.59375 0.625
vt 0.5625 0.625
vt 0.5625 0.59375
vt 0.25 0.9634625
vt 0.328125 0.95
vt 0.328125 1
vt 0.25 0.9865375
vt 0.25 0.8572124999999999
vt 0.328125 0.84375
vt 0.328125 0.89375
vt 0.25 0.8802875
vt 0.5625 0.96875
vt 0.65625 0.96875
vt 0.65625 1
vt 0.5625 1
vt 0.65625 0.9375
vt 0.5625 0.9375
vt 0.5625 0.90625
vt 0.65625 0.90625
vt 0.65625 0.875
vt 0.5625 0.875
vt 0.5625 0.84375
vt 0.65625 0.84375
vt 0.40625 0.8802875
vt 0.328125 0.89375
vt 0.328125 0.84375
vt 0.40625 0.8572124999999999
vt 0.5625 0.78125
vt 0.65625 0.78125
vt 0.65625 0.8125
vt 0.5625 0.8125
vt 0.40625 0.9865375
vt 0.328125 1
vt 0.328125 0.95
vt 0.40625 0.9634625
vn 1 0 0
vn -1 0 0
vn 0 1 0
vn 0 -1 0
vn -0.16980537412082608 0 0.9854776176655086
vn -0.16980537412082608 0 -0.9854776176655086
vn 0.16980537412082608 0 0.9854776176655086
vn 0 -1 0
vn 0.16980537412082608 0 -0.9854776176655086
vn 0 1 0
usemtl m_4594afe3-69e3-107a-35bb-41956cc76fc5
f 20/81/25 19/82/25 21/83/25 22/84/25
f 25/85/26 23/86/26 24/87/26 26/88/26
f 23/89/27 27/90/27 30/91/27 24/92/27
f 26/93/28 29/94/28 28/95/28 25/96/28
f 25/97/29 28/98/29 27/99/29 23/100/29
f 24/101/30 30/102/30 29/103/30 26/104/30
f 19/105/31 27/106/31 28/107/31 21/108/31
f 21/109/32 28/110/32 29/111/32 22/112/32
f 22/113/33 29/114/33 30/115/33 20/116/33
f 20/117/34 30/118/34 27/119/34 19/120/34
o cuboid
v 0.05624999999999998 0.3125 0.006249999999999992
v 0.05624999999999998 0.3125 -0.006249999999999992
v -0.05624999999999998 0.3125 0.006249999999999992
v -0.05624999999999998 0.3125 -0.006249999999999992
v 1.561251128379126e-17 1.25 0.024999999999999994
v 1.561251128379126e-17 0.3125 0.024999999999999994
v 1.561251128379126e-17 0.3125 -0.024999999999999994
v 1.561251128379126e-17 1.25 -0.024999999999999994
v 1.561251128379126e-17 1.375 -0.006249999999999992
v 1.561251128379126e-17 1.375 0.006249999999999992
v 0.05624999999999998 1.2562499999999996 0.006249999999999992
v -0.05624999999999998 1.2562499999999996 0.006249999999999992
v -0.05624999999999998 1.2562499999999996 -0.006249999999999992
v 0.05624999999999998 1.2562499999999996 -0.006249999999999992
vt 0.4484375 0.559303125
vt 0.4421875 0.559303125
vt 0.4421875 0.08742812499999997
vt 0.4484375 0.08742812499999997
vt 0.5109375 0.46242812499999997
vt 0.5109375 0.934303125
vt 0.5046875 0.934303125
vt 0.5046875 0.46242812499999997
vt 0.5109375 0.934303125
vt 0.5109375 1
vt 0.5046875 1
vt 0.5046875 0.934303125
vt 0.253125 0.415625
vt 0.28125 0.40625
vt 0.28125 0.43125
vt 0.253125 0.421875
vt 1.8357561086534968e-7 0.46811551768140225
vt 0.02964705857561087 0.46811551768140225
vt 0.02964705857561087 0.9368655176814022
vt 1.8357561086534968e-7 0.9399905176814023
vt 0.15625 0.93999053703163
vt 0.126603125 0.93686553703163
vt 0.126603125 0.46811553703163
vt 0.15625 0.46811553703163
vt 0.21875 0.93999053703163
vt 0.189103125 0.93686553703163
vt 0.189103125 0.46811553703163
vt 0.21875 0.46811553703163
vt 0.309375 0.421875
vt 0.28125 0.43125
vt 0.28125 0.40625
vt 0.309375 0.415625
vt 0.06250018357561087 0.46811551768140225
vt 0.09214705857561087 0.46811551768140225
vt 0.09214705857561087 0.9368655176814022
vt 0.06250018357561087 0.9399905176814023
vt 0.4484375 0.559303125
vt 0.4484375 0.625
vt 0.4421875 0.625
vt 0.4421875 0.559303125
vt 0.08924929647785776 1
vt 0.0625 0.93999053703163
vt 0.09214705857561087 0.9368655176814022
vt 0.026749296477857756 1
vt 0 0.93999053703163
vt 0.02964705857561087 0.9368655176814022
vt 0.15625 0.93999053703163
vt 0.12950070352214224 1
vt 0.12660294142438913 0.9368655176814022
vt 0.21875 0.93999053703163
vt 0.19200070352214224 1
vt 0.18910294142438913 0.9368655176814022
vn 1 0 0
vn -1 0 0
vn -0.9037378388935394 0.42808634473904367 0
vn 0 -1 0
vn -0.31622776601683805 0 0.9486832980505138
vn -0.31622776601683805 0 -0.9486832980505138
vn 0.31622776601683816 0 0.9486832980505138
vn 0 -1 0
vn 0.31622776601683816 0 -0.9486832980505138
vn 0.9037378388935393 0.42808634473904345 0
vn 0.29885150438376584 0.1415612389186254 -0.9437415927908359
vn -0.2988515043837657 0.1415612389186254 0.9437415927908359
vn -0.2988515043837657 0.1415612389186254 -0.9437415927908359
vn 0.29885150438376584 0.1415612389186254 0.9437415927908359
usemtl m_4594afe3-69e3-107a-35bb-41956cc76fc5
f 44/121/35 41/122/35 31/123/35 32/124/35
f 33/125/36 42/126/36 43/127/36 34/128/36
f 42/129/37 40/130/37 39/131/37 43/132/37
f 34/133/38 37/134/38 36/135/38 33/136/38
f 33/137/39 36/138/39 35/139/39 42/140/39
f 43/141/40 38/142/40 37/143/40 34/144/40
f 41/145/41 35/146/41 36/147/41 31/148/41
f 31/149/42 36/150/42 37/151/42 32/152/42
f 32/153/43 37/154/43 38/155/43 44/156/43
f 44/157/44 39/158/44 40/159/44 41/160/44
f 39/161/45 44/162/45 38/163/45
f 40/164/46 42/165/46 35/166/46
f 43/167/47 39/168/47 38/169/47
f 41/170/48 40/171/48 35/172/48
o WoodSword
v 2.5673907444456743e-17 0 -5.204170427930421e-17
v 2.5673907444456743e-17 0.3125 -5.204170427930421e-17
v 0.015533008588991093 0 0.031249999999999938
v 0.015533008588991093 0.3125 0.031249999999999938
v 0.03750000000000002 0 0.012944173824159171
v 0.03750000000000002 0.3125 0.012944173824159171
v 0.03750000000000002 0 -0.01294417382415927
v 0.03750000000000002 0.3125 -0.01294417382415927
v 0.015533008588991095 0 -0.03125000000000005
v 0.015533008588991095 0.3125 -0.03125000000000005
v -0.015533008588991037 0 -0.03125000000000005
v -0.015533008588991037 0.3125 -0.03125000000000005
v -0.037499999999999964 0 -0.012944173824159291
v -0.037499999999999964 0.3125 -0.012944173824159291
v -0.037499999999999964 0 0.012944173824159176
v -0.037499999999999964 0.3125 0.012944173824159176
v -0.015533008588991067 0 0.031249999999999934
v -0.015533008588991067 0.3125 0.031249999999999934
v 0.15625 0.3312499999999995 0.023076923076923064
v 0.15625 0.3312499999999995 -0.023076923076923064
v 0.15625 0.2687499999999997 0.023076923076923064
v 0.15625 0.2687499999999997 -0.023076923076923064
v -0.15625 0.3312499999999995 0.023076923076923064
v -0.15625 0.3312499999999995 -0.023076923076923064
v -0.15625 0.2687499999999997 0.023076923076923064
v -0.15625 0.2687499999999997 -0.023076923076923064
v 0 0.3312499999999995 0.04999999999999999
v 0 0.2687499999999997 0.04999999999999999
v 0 0.2687499999999997 -0.04999999999999999
v 0 0.3312499999999995 -0.04999999999999999
v 0.05624999999999998 0.3125 0.006249999999999992
v 0.05624999999999998 0.3125 -0.006249999999999992
v -0.05624999999999998 0.3125 0.006249999999999992
v -0.05624999999999998 0.3125 -0.006249999999999992
v 1.561251128379126e-17 1.25 0.024999999999999994
v 1.561251128379126e-17 0.3125 0.024999999999999994
v 1.561251128379126e-17 0.3125 -0.024999999999999994
v 1.561251128379126e-17 1.25 -0.024999999999999994
v 1.561251128379126e-17 1.375 -0.006249999999999992
v 1.561251128379126e-17 1.375 0.006249999999999992
v 0.05624999999999998 1.2562499999999996 0.006249999999999992
v -0.05624999999999998 1.2562499999999996 0.006249999999999992
v -0.05624999999999998 1.2562499999999996 -0.006249999999999992
v 0.05624999999999998 1.2562499999999996 -0.006249999999999992
vt 0.6046875 0.740846875
vt 0.593703125 0.75
vt 0.5859375 0.734375
vt 0.4375 0.65625
vt 0.453125 0.65625
vt 0.453125 0.8125
vt 0.4375 0.8125
vt 0.593703125 0.65625
vt 0.6046875 0.665403125
vt 0.5859375 0.671875
vt 0.6046875 0.727903125
vt 0.6046875 0.740846875
vt 0.5859375 0.734375
vt 0.25 0.65625
vt 0.265625 0.65625
vt 0.265625 0.8125
vt 0.25 0.8125
vt 0.6046875 0.665403125
vt 0.6046875 0.678346875
vt 0.5859375 0.671875
vt 0.593703125 0.71875
vt 0.6046875 0.727903125
vt 0.5859375 0.734375
vt 0.375 0.46875
vt 0.390625 0.46875
vt 0.390625 0.625
vt 0.375 0.625
vt 0.6046875 0.678346875
vt 0.593703125 0.6875
vt 0.5859375 0.671875
vt 0.578171875 0.71875
vt 0.593703125 0.71875
vt 0.5859375 0.734375
vt 0.3125 0.65625
vt 0.328125 0.65625
vt 0.328125 0.8125
vt 0.3125 0.8125
vt 0.593703125 0.6875
vt 0.578171875 0.6875
vt 0.5859375 0.671875
vt 0.5671875 0.727903125
vt 0.578171875 0.71875
vt 0.5859375 0.734375
vt 0.4375 0.84375
vt 0.453125 0.84375
vt 0.453125 1
vt 0.4375 1
vt 0.578171875 0.6875
vt 0.5671875 0.678346875
vt 0.5859375 0.671875
vt 0.5671875 0.740846875
vt 0.5671875 0.727903125
vt 0.5859375 0.734375
vt 0.375 0.65625
vt 0.390625 0.65625
vt 0.390625 0.8125
vt 0.375 0.8125
vt 0.5671875 0.678346875
vt 0.5671875 0.665403125
vt 0.5859375 0.671875
vt 0.578171875 0.75
vt 0.5671875 0.740846875
vt 0.5859375 0.734375
vt 0.3125 0.46875
vt 0.328125 0.46875
vt 0.328125 0.625
vt 0.3125 0.625
vt 0.5671875 0.665403125
vt 0.578171875 0.65625
vt 0.5859375 0.671875
vt 0.593703125 0.75
vt 0.578171875 0.75
vt 0.5859375 0.734375
vt 0.25 0.46875
vt 0.265625 0.46875
vt 0.265625 0.625
vt 0.25 0.625
vt 0.578171875 0.65625
vt 0.593703125 0.65625
vt 0.5859375 0.671875
vt 0.375 0.4375
vt 0.34375 0.4375
vt 0.34375 0.40625
vt 0.375 0.40625
vt 0.59375 0.59375
vt 0.59375 0.625
vt 0.5625 0.625
vt 0.5625 0.59375
vt 0.25 0.9634625
vt 0.328125 0.95
vt 0.328125 1
vt 0.25 0.9865375
vt 0.25 0.8572124999999999
vt 0.328125 0.84375
vt 0.328125 0.89375
vt 0.25 0.8802875
vt 0.5625 0.96875
vt 0.65625 0.96875
vt 0.65625 1
vt 0.5625 1
vt 0.65625 0.9375
vt 0.5625 0.9375
vt 0.5625 0.90625
vt 0.65625 0.90625
vt 0.65625 0.875
vt 0.5625 0.875
vt 0.5625 0.84375
vt 0.65625 0.84375
vt 0.40625 0.8802875
vt 0.328125 0.89375
vt 0.328125 0.84375
vt 0.40625 0.8572124999999999
vt 0.5625 0.78125
vt 0.65625 0.78125
vt 0.65625 0.8125
vt 0.5625 0.8125
vt 0.40625 0.9865375
vt 0.328125 1
vt 0.328125 0.95
vt 0.40625 0.9634625
vt 0.4484375 0.559303125
vt 0.4421875 0.559303125
vt 0.4421875 0.08742812499999997
vt 0.4484375 0.08742812499999997
vt 0.5109375 0.46242812499999997
vt 0.5109375 0.934303125
vt 0.5046875 0.934303125
vt 0.5046875 0.46242812499999997
vt 0.5109375 0.934303125
vt 0.5109375 1
vt 0.5046875 1
vt 0.5046875 0.934303125
vt 0.253125 0.415625
vt 0.28125 0.40625
vt 0.28125 0.43125
vt 0.253125 0.421875
vt 1.8357561086534968e-7 0.46811551768140225
vt 0.02964705857561087 0.46811551768140225
vt 0.02964705857561087 0.9368655176814022
vt 1.8357561086534968e-7 0.9399905176814023
vt 0.15625 0.93999053703163
vt 0.126603125 0.93686553703163
vt 0.126603125 0.46811553703163
vt 0.15625 0.46811553703163
vt 0.21875 0.93999053703163
vt 0.189103125 0.93686553703163
vt 0.189103125 0.46811553703163
vt 0.21875 0.46811553703163
vt 0.309375 0.421875
vt 0.28125 0.43125
vt 0.28125 0.40625
vt 0.309375 0.415625
vt 0.06250018357561087 0.46811551768140225
vt 0.09214705857561087 0.46811551768140225
vt 0.09214705857561087 0.9368655176814022
vt 0.06250018357561087 0.9399905176814023
vt 0.4484375 0.559303125
vt 0.4484375 0.625
vt 0.4421875 0.625
vt 0.4421875 0.559303125
vt 0.08924929647785776 1
vt 0.0625 0.93999053703163
vt 0.09214705857561087 0.9368655176814022
vt 0.026749296477857756 1
vt 0 0.93999053703163
vt 0.02964705857561087 0.9368655176814022
vt 0.15625 0.93999053703163
vt 0.12950070352214224 1
vt 0.12660294142438913 0.9368655176814022
vt 0.21875 0.93999053703163
vt 0.19200070352214224 1
vt 0.18910294142438913 0.9368655176814022
vn 0 -1 0
vn 0.6401843996644798 0 0.7682212795973761
vn 0 1 0
vn 0 -1 0
vn 1 0 0
vn 0 1 0
vn 0 -1 0
vn 0.6401843996644799 0 -0.7682212795973757
vn 0 1 0
vn 0 -1 0
vn 0 0 -1
vn 0 1 0
vn 0 -1 0
vn -0.6401843996644796 0 -0.7682212795973762
vn 0 1 0
vn 0 -1 0
vn -1 0 0
vn 0 1 0
vn 0 -1 0
vn -0.64018439966448 0 0.7682212795973759
vn 0 1 0
vn 0 -1 0
vn -1.116798118045387e-16 0 1
vn 0 1 0
vn 1 0 0
vn -1 0 0
vn 0 1 0
vn 0 -1 0
vn -0.16980537412082608 0 0.9854776176655086
vn -0.16980537412082608 0 -0.9854776176655086
vn 0.16980537412082608 0 0.9854776176655086
vn 0 -1 0
vn 0.16980537412082608 0 -0.9854776176655086
vn 0 1 0
vn 1 0 0
vn -1 0 0
vn -0.9037378388935394 0.42808634473904367 0
vn 0 -1 0
vn -0.31622776601683805 0 0.9486832980505138
vn -0.31622776601683805 0 -0.9486832980505138
vn 0.31622776601683816 0 0.9486832980505138
vn 0 -1 0
vn 0.31622776601683816 0 -0.9486832980505138
vn 0.9037378388935393 0.42808634473904345 0
vn 0.29885150438376584 0.1415612389186254 -0.9437415927908359
vn -0.2988515043837657 0.1415612389186254 0.9437415927908359
vn -0.2988515043837657 0.1415612389186254 -0.9437415927908359
vn 0.29885150438376584 0.1415612389186254 0.9437415927908359
usemtl m_4594afe3-69e3-107a-35bb-41956cc76fc5
f 49/173/49 47/174/49 45/175/49
f 47/176/50 49/177/50 50/178/50 48/179/50
f 48/180/51 50/181/51 46/182/51
f 51/183/52 49/184/52 45/185/52
f 49/186/53 51/187/53 52/188/53 50/189/53
f 50/190/54 52/191/54 46/192/54
f 53/193/55 51/194/55 45/195/55
f 51/196/56 53/197/56 54/198/56 52/199/56
f 52/200/57 54/201/57 46/202/57
f 55/203/58 53/204/58 45/205/58
f 53/206/59 55/207/59 56/208/59 54/209/59
f 54/210/60 56/211/60 46/212/60
f 57/213/61 55/214/61 45/215/61
f 55/216/62 57/217/62 58/218/62 56/219/62
f 56/220/63 58/221/63 46/222/63
f 59/223/64 57/224/64 45/225/64
f 57/226/65 59/227/65 60/228/65 58/229/65
f 58/230/66 60/231/66 46/232/66
f 61/233/67 59/234/67 45/235/67
f 59/236/68 61/237/68 62/238/68 60/239/68
f 60/240/69 62/241/69 46/242/69
f 47/243/70 61/244/70 45/245/70
f 61/246/71 47/247/71 48/248/71 62/249/71
f 62/250/72 48/251/72 46/252/72
f 64/253/73 63/254/73 65/255/73 66/256/73
f 69/257/74 67/258/74 68/259/74 70/260/74
f 67/261/75 71/262/75 74/263/75 68/264/75
f 70/265/76 73/266/76 72/267/76 69/268/76
f 69/269/77 72/270/77 71/271/77 67/272/77
f 68/273/78 74/274/78 73/275/78 70/276/78
f 63/277/79 71/278/79 72/279/79 65/280/79
f 65/281/80 72/282/80 73/283/80 66/284/80
f 66/285/81 73/286/81 74/287/81 64/288/81
f 64/289/82 74/290/82 71/291/82 63/292/82
f 88/293/83 85/294/83 75/295/83 76/296/83
f 77/297/84 86/298/84 87/299/84 78/300/84
f 86/301/85 84/302/85 83/303/85 87/304/85
f 78/305/86 81/306/86 80/307/86 77/308/86
f 77/309/87 80/310/87 79/311/87 86/312/87
f 87/313/88 82/314/88 81/315/88 78/316/88
f 85/317/89 79/318/89 80/319/89 75/320/89
f 75/321/90 80/322/90 81/323/90 76/324/90
f 76/325/91 81/326/91 82/327/91 88/328/91
f 88/329/92 83/330/92 84/331/92 85/332/92
f 83/333/93 88/334/93 82/335/93
f 84/336/94 86/337/94 79/338/94
f 87/339/95 83/340/95 82/341/95
f 85/342/96 84/343/96 79/344/96