# Made in Blockbench 4.9.4
mtllib Bowl.mtl

o cylinder
v 0 0.625 0
v 0.10048094716167097 0.625 0.375
v 0.13397459621556132 0.765625 0.49999999999999994
v 0.27451905283832895 0.625 0.27451905283832895
v 0.3660254037844386 0.765625 0.36602540378443865
v 0.375 0.625 0.10048094716167097
v 0.49999999999999994 0.765625 0.13397459621556132
v 0.375 0.625 -0.10048094716167102
v 0.49999999999999994 0.765625 -0.13397459621556138
v 0.27451905283832895 0.625 -0.27451905283832895
v 0.36602540378443865 0.765625 -0.3660254037844386
v 0.10048094716167111 0.625 -0.3749999999999999
v 0.1339745962155615 0.765625 -0.4999999999999999
v -0.10048094716167084 0.625 -0.375
v -0.13397459621556113 0.765625 -0.5
v -0.27451905283832895 0.625 -0.27451905283832906
v -0.3660254037844386 0.765625 -0.3660254037844387
v -0.3749999999999999 0.625 -0.10048094716167096
v -0.49999999999999994 0.765625 -0.13397459621556126
v -0.375 0.625 0.1004809471616708
v -0.5 0.765625 0.1339745962155611
v -0.27451905283832906 0.625 0.27451905283832895
v -0.3660254037844387 0.765625 0.36602540378443854
v -0.10048094716167097 0.625 0.375
v -0.1339745962155613 0.765625 0.49999999999999994
v -0.4374999999999999 0.765625 -0.1172277716886161
v -0.4375 0.765625 0.11722777168861598
v -0.3202722283113839 0.765625 0.3202722283113837
v -0.11722777168861613 0.765625 0.4375
v 0.11722777168861617 0.765625 0.4375
v 0.3202722283113838 0.765625 0.3202722283113838
v 0.4375 0.765625 0.11722777168861617
v 0.4375 0.765625 -0.1172277716886162
v 0.3202722283113838 0.765625 -0.3202722283113838
v 0.11722777168861631 0.765625 -0.4374999999999999
v -0.11722777168861599 0.765625 -0.4375
v -0.3202722283113838 0.765625 -0.3202722283113839
v -0.4218749999999999 0.68125 -0.11304106555687982
v -0.421875 0.68125 0.11304106555687969
v -0.3088339344431202 0.68125 0.30883393444312
v -0.11304106555687984 0.68125 0.421875
v 0.11304106555687989 0.68125 0.421875
v 0.3088339344431201 0.68125 0.3088339344431201
v 0.421875 0.68125 0.11304106555687989
v 0.421875 0.68125 -0.11304106555687991
v 0.3088339344431201 0.68125 -0.3088339344431201
v 0.11304106555688001 0.68125 -0.4218749999999999
v -0.1130410655568797 0.68125 -0.421875
v -0.3088339344431201 0.68125 -0.3088339344431202
v 0.23162545083234004 0.6578125 -0.23162545083234004
v 0.08478079916766001 0.6578125 -0.3164062499999999
v 4.625929269271488e-18 0.625 4.625929269271488e-18
v -0.08478079916765978 0.6578125 -0.31640625
v -0.23162545083234004 0.6578125 -0.23162545083234015
v -0.3164062499999999 0.6578125 -0.08478079916765986
v -0.31640625 0.6578125 0.08478079916765976
v -0.23162545083234015 0.6578125 0.23162545083234
v -0.08478079916765988 0.6578125 0.31640625
v 0.08478079916765992 0.6578125 0.31640625
v 0.23162545083234004 0.6578125 0.23162545083234004
v 0.31640625 0.6578125 0.08478079916765992
v 0.31640625 0.6578125 -0.08478079916765993
vt 0.16237968749999998 0.7092546875
vt 0.11887031249999999 0.734375
vt 0.09375 0.640625
vt 0.4391828125 0.940508350981234
vt 0.4863370176184354 0.9231704924041447
vt 0.5104285234912471 0.9644287062117816
vt 0.44755625 0.971920850981234
vt 0.30803814527011514 0.7542390625
vt 0.27127031872794083 0.7331418584374896
vt 0.3292334577701151 0.6747125
vt 0.1875 0.6657453125
vt 0.16237968749999998 0.7092546875
vt 0.09375 0.640625
vt 0.4863370176184354 0.9231704924041447
vt 0.5246111776296281 0.890625
vt 0.5614607368395041 0.9210347163395887
vt 0.5104285234912471 0.9644287062117816
vt 0.27127031872794083 0.7331418584374896
vt 0.24987924347532986 0.6965442220735417
vt 0.32923345777011503 0.6747124999999999
vt 0.1875 0.6155046875
vt 0.1875 0.6657453125
vt 0.09375 0.640625
vt 0.07644218750000001 0.890625
vt 0.1266828125 0.890625
vt 0.13505625 0.9375
vt 0.06806875 0.9375
vt 0.2498792434753299 0.6965442220735417
vt 0.24953965089176133 0.6541549573386137
vt 0.3292334577701151 0.6747125
vt 0.16237968749999998 0.5719953125
vt 0.1875 0.6155046875
vt 0.09375 0.640625
vt 0.42851382237037194 0.5
vt 0.4667879823815646 0.5325454924041447
vt 0.4426964765087528 0.5738037062117816
vt 0.39166426316049585 0.5304097163395887
vt 0.24953965089176133 0.6541549573386137
vt 0.270341629795467 0.6172193002904385
vt 0.3292334577701151 0.6747125
vt 0.11887031249999999 0.546875
vt 0.16237968749999998 0.5719953125
vt 0.09375 0.640625
vt 0.4667879823815646 0.5325454924041447
vt 0.5139421875 0.549883350981234
vt 0.50556875 0.581295850981234
vt 0.4426964765087528 0.5738037062117816
vt 0.270341629795467 0.6172193002904385
vt 0.3067667272313664 0.59553572667639
vt 0.3292334577701151 0.6747125
vt 0.06862968750000001 0.546875
vt 0.11887031249999999 0.546875
vt 0.09375 0.640625
vt 0.5139421875 0.549883350981234
vt 0.5641828125 0.549883350981234
vt 0.57255625 0.581295850981234
vt 0.50556875 0.581295850981234
vt 0.3093150042818533 0.5948565633035026
vt 0.35170018830886396 0.59553572667639
vt 0.32923345777011515 0.6747125
vt 0.025120312500000005 0.5719953125
vt 0.06862968750000001 0.546875
vt 0.09375 0.640625
vt 0.5641828125 0.549883350981234
vt 0.6113370176184354 0.5325454924041447
vt 0.6354285234912471 0.5738037062117816
vt 0.57255625 0.581295850981234
vt 0.35170018830886396 0.59553572667639
vt 0.3881252857447633 0.6172193002904385
vt 0.3292334577701152 0.6747125
vt 0 0.6155046875
vt 0.025120312500000005 0.5719953125
vt 0.09375 0.640625
vt 0.6113370176184354 0.5325454924041447
vt 0.6496111776296281 0.5
vt 0.6864607368395041 0.5304097163395887
vt 0.6354285234912471 0.5738037062117816
vt 0.38812528574476335 0.6172193002904385
vt 0.40892726464846896 0.6541549573386137
vt 0.3292334577701152 0.6747125
vt 0 0.6657453125
vt 0 0.6155046875
vt 0.09375 0.640625
vt 0.07644218750000001 0.828125
vt 0.1266828125 0.828125
vt 0.13505625 0.875
vt 0.06806875 0.875
vt 0.40892726464846896 0.6541549573386137
vt 0.40858767206490043 0.6965442220735417
vt 0.3292334577701152 0.6747125
vt 0.040745312500000005 0.6936296875
vt 0 0.6657453125
vt 0.09375 0.640625
vt 0.30351382237037194 0.890625
vt 0.3417879823815646 0.9231704924041447
vt 0.3176964765087528 0.9644287062117816
vt 0.26666426316049585 0.9210347163395887
vt 0.40858767206490043 0.6965442220735417
vt 0.38719659681228946 0.7331418584374896
vt 0.32923345777011526 0.6747124999999999
vt 0.06862968750000001 0.734375
vt 0.040745312500000005 0.6936296875
vt 0.09375 0.640625
vt 0.3417879823815646 0.9231704924041447
vt 0.3889421875 0.940508350981234
vt 0.38056875 0.971920850981234
vt 0.3176964765087528 0.9644287062117816
vt 0.38719659681228946 0.7331418584374896
vt 0.35042877027011515 0.7542390625
vt 0.3292334577701152 0.6747125
vt 0.11887031249999999 0.734375
vt 0.06862968750000001 0.734375
vt 0.09375 0.640625
vt 0.3889421875 0.940508350981234
vt 0.4391828125 0.940508350981234
vt 0.44755625 0.971920850981234
vt 0.38056875 0.971920850981234
vt 0.35042877027011515 0.7542390625
vt 0.30803814527011514 0.7542390625
vt 0.32923345777011515 0.6747125
vt 0.01171875 0.84375
vt 0.01171875 0.90625
vt 0 0.90849375
vt 0 0.84150625
vt 0.044931250000000006 0.79493125
vt 0.01171875 0.84375
vt 0 0.84150625
vt 0.03349375 0.78349375
vt 0.09375 0.76171875
vt 0.044931250000000006 0.79493125
vt 0.03349375 0.78349375
vt 0.09150625 0.75
vt 0.15625 0.76171875
vt 0.09375 0.76171875
vt 0.09150625 0.75
vt 0.15849375 0.75
vt 0.20506875000000002 0.79493125
vt 0.15625 0.76171875
vt 0.15849375 0.75
vt 0.21650625 0.78349375
vt 0.23828125 0.84375
vt 0.20506875000000002 0.79493125
vt 0.21650625 0.78349375
vt 0.25 0.8415062499999999
vt 0.23828125 0.90625
vt 0.23828125 0.84375
vt 0.25 0.8415062499999999
vt 0.25 0.90849375
vt 0.20506875000000002 0.95506875
vt 0.23828125 0.90625
vt 0.25 0.90849375
vt 0.21650625 0.96650625
vt 0.15625 0.98828125
vt 0.20506875000000002 0.95506875
vt 0.21650625 0.96650625
vt 0.15849375 1
vt 0.09375 0.98828125
vt 0.15625 0.98828125
vt 0.15849375 1
vt 0.09150625 1
vt 0.044931250000000006 0.95506875
vt 0.09375 0.98828125
vt 0.09150625 1
vt 0.03349375 0.96650625
vt 0.01171875 0.90625
vt 0.044931250000000006 0.95506875
vt 0.03349375 0.96650625
vt 0 0.90849375
vt 0.2373640625 0.5254234375
vt 0.2938859375 0.5254234375
vt 0.29493125 0.546875
vt 0.23631875 0.546875
vt 0.18110997541030774 0.5199279812658967
vt 0.2373640625 0.5254234375
vt 0.23631875 0.546875
vt 0.17798394282057456 0.5411762784250101
vt 0.3876359375 0.8535484375
vt 0.4438900245896923 0.8480529812658967
vt 0.44701605717942544 0.8693012784250101
vt 0.38868125 0.875
vt 0.3311140625 0.8535484375
vt 0.3876359375 0.8535484375
vt 0.38868125 0.875
vt 0.33006875 0.875
vt 0.2748599754103077 0.8480529812658967
vt 0.3311140625 0.8535484375
vt 0.33006875 0.875
vt 0.27173394282057456 0.8693012784250101
vt 0.5595109375 0.7597984375
vt 0.6157650245896923 0.7543029812658967
vt 0.6188910571794255 0.7755512784250101
vt 0.56055625 0.78125
vt 0.5029890625 0.7597984375
vt 0.5595109375 0.7597984375
vt 0.56055625 0.78125
vt 0.50194375 0.78125
vt 0.4467349754103077 0.7543029812658967
vt 0.5029890625 0.7597984375
vt 0.50194375 0.78125
vt 0.44360894282057456 0.7755512784250101
vt 0.3876359375 0.8066734375
vt 0.4438900245896923 0.8011779812658967
vt 0.44701605717942544 0.8224262784250101
vt 0.38868125 0.828125
vt 0.3311140625 0.8066734375
vt 0.3876359375 0.8066734375
vt 0.38868125 0.828125
vt 0.33006875 0.828125
vt 0.2748599754103077 0.8011779812658967
vt 0.3311140625 0.8066734375
vt 0.33006875 0.828125
vt 0.27173394282057456 0.8224262784250101
vt 0.2938859375 0.5254234375
vt 0.3501400245896923 0.5199279812658967
vt 0.35326605717942544 0.5411762784250101
vt 0.29493125 0.546875
vt 0.3023133247332925 0.5939033561850986
vt 0.2669269212289055 0.6172436118588339
vt 0.2461565446539442 0.5985860327499617
vt 0.29333928554475486 0.5674651183105328
vt 0.35170018830886396 0.59553572667639
vt 0.3093150042818533 0.5948565633035026
vt 0.30268304317079414 0.5677358905041243
vt 0.3591976634064403 0.5686414583570853
vt 0.3881252857447633 0.6172193002904386
vt 0.35170018830886396 0.59553572667639
vt 0.35944547568302243 0.5687117760955894
vt 0.4080131673397207 0.5976237404123823
vt 0.40892726464846896 0.6541549573386136
vt 0.38812528574476335 0.6172193002904385
vt 0.4081931130499328 0.5978080636343306
vt 0.43592959608947 0.6470565139867335
vt 0.40858767206490043 0.6965442220735417
vt 0.40892726464846896 0.6541549573386137
vt 0.4359939383357375 0.6473059445063544
vt 0.4355411398794895 0.7038260057861658
vt 0.38719659681228946 0.7331418584374896
vt 0.40858767206490043 0.6965442220735417
vt 0.4354728096290682 0.7040743734282824
vt 0.40625 0.75
vt 0.3504287702701151 0.7542390625
vt 0.38719659681228946 0.7331418584374896
vt 0.40234375 0.75390625
vt 0.3577433023381176 0.7811836616229355
vt 0.30803814527011514 0.7542390625
vt 0.35042877027011515 0.7542390625
vt 0.3574943952701152 0.78125
vt 0.3009725202701151 0.78125
vt 0.2710772370229421 0.7334819829984256
vt 0.30803814527011514 0.7542390625
vt 0.3009725202701151 0.78125
vt 0.251690401031883 0.7535733839332859
vt 0.24901451940504277 0.6972852762531503
vt 0.2710772370229421 0.7334819829984256
vt 0.251690401031883 0.7535733839332859
vt 0.2222729020599003 0.705310218809674
vt 0.24750191698524804 0.654921646547821
vt 0.24901451940504277 0.6972852762531503
vt 0.2222729020599003 0.705310218809674
vt 0.22025606166426245 0.6488243381992583
vt 0.2669269212289055 0.6172436118588339
vt 0.24750191698524804 0.654921646547821
vt 0.22025606166426248 0.6488243381992583
vt 0.24615654465394418 0.5985860327499617
vn 0 -1 0
vn 0.37370465934182995 -0.6643638388299198 0.6472754570052686
vn -0.05157526151190822 0.9946657577296574 -0.0893309733522766
vn 0 -1 0
vn 0.6472754570052688 -0.6643638388299197 0.37370465934183006
vn -0.0893309733522766 0.9946657577296574 -0.05157526151190822
vn 0 -1 0
vn 0.7474093186836599 -0.6643638388299197 0
vn -0.10315052302381637 0.9946657577296573 0
vn 0 -1 0
vn 0.6472754570052685 -0.6643638388299199 -0.37370465934183
vn -0.0893309733522766 0.9946657577296573 0.05157526151190822
vn 0 -1 0
vn 0.37370465934182984 -0.6643638388299199 -0.6472754570052685
vn -0.05157526151190821 0.9946657577296574 0.08933097335227662
vn 0 -1 0
vn 4.1290964001707224e-16 -0.6643638388299197 -0.7474093186836599
vn -6.753892791025529e-17 0.9946657577296573 0.1031505230238164
vn 0 -1 0
vn -0.3737046593418295 -0.6643638388299197 -0.6472754570052689
vn 0.05157526151190814 0.9946657577296573 0.08933097335227665
vn 0 -1 0
vn -0.6472754570052687 -0.6643638388299199 -0.37370465934182934
vn 0.08933097335227669 0.9946657577296573 0.05157526151190813
vn 0 -1 0
vn -0.7474093186836598 -0.6643638388299197 -4.129096400170726e-16
vn 0.1031505230238164 0.9946657577296573 6.753892791025536e-17
vn 0 -1 0
vn -0.6472754570052691 -0.6643638388299195 0.3737046593418295
vn 0.08933097335227665 0.9946657577296573 -0.05157526151190814
vn 0 -1 0
vn -0.3737046593418299 -0.6643638388299197 0.6472754570052688
vn 0.05157526151190819 0.9946657577296573 -0.08933097335227662
vn 0 -1 0
vn 0 -0.6643638388299196 0.7474093186836599
vn 0 0.9946657577296574 -0.10315052302381639
vn 0 1 0
vn 0 1 0
vn 0 1 0
vn 0 1 0
vn 0 1 0
vn 0 1 0
vn 0 1 0
vn 0 1 0
vn 0 1 0
vn 0 1 0
vn 0 1 0
vn 0 1 0
vn 0.9832820049844602 0.18208926018230748 4.828609480348693e-16
vn 0.8515471954006398 0.18208926018230742 -0.49164100249222964
vn 0.4916410024922302 0.18208926018230734 -0.8515471954006397
vn 0 0.18208926018230748 -0.9832820049844602
vn -0.49164100249223025 0.18208926018230745 -0.8515471954006394
vn -0.8515471954006394 0.1820892601823078 -0.49164100249223025
vn -0.9832820049844602 0.1820892601823075 0
vn -0.8515471954006394 0.1820892601823073 0.49164100249223036
vn -0.4916410024922301 0.18208926018230776 0.8515471954006395
vn -4.828609480348689e-16 0.1820892601823075 0.9832820049844602
vn 0.49164100249222953 0.1820892601823074 0.8515471954006398
vn 0.8515471954006398 0.18208926018230776 0.49164100249222953
vn -0.10846522890932811 0.9761870601839528 0.18786728732554486
vn -1.4203757889594095e-16 0.9761870601839528 0.21693045781865616
vn 0.10846522890932798 0.976187060183953 0.18786728732554495
vn 0.187867287325545 0.976187060183953 0.10846522890932797
vn 0.21693045781865616 0.9761870601839528 1.420375788959411e-16
vn 0.18786728732554495 0.976187060183953 -0.10846522890932798
vn 0.10846522890932811 0.9761870601839528 -0.1878672873255449
vn 0 0.9761870601839527 -0.21693045781865616
vn -0.10846522890932815 0.9761870601839528 -0.18786728732554484
vn -0.18786728732554484 0.9761870601839528 -0.10846522890932815
vn -0.21693045781865616 0.9761870601839527 0
vn -0.1878672873255448 0.9761870601839527 0.10846522890932815
usemtl m_b5ecd230-7397-6986-6b0c-c973ac7c4bd9
f 4/1/1 2/2/1 1/3/1
f 2/4/2 4/5/2 5/6/2 3/7/2
f 59/8/3 60/9/3 52/10/3
f 6/11/4 4/12/4 1/13/4
f 4/14/5 6/15/5 7/16/5 5/17/5
f 60/18/6 61/19/6 52/20/6
f 8/21/7 6/22/7 1/23/7
f 6/24/8 8/25/8 9/26/8 7/27/8
f 61/28/9 62/29/9 52/30/9
f 10/31/10 8/32/10 1/33/10
f 8/34/11 10/35/11 11/36/11 9/37/11
f 62/38/12 50/39/12 52/40/12
f 12/41/13 10/42/13 1/43/13
f 10/44/14 12/45/14 13/46/14 11/47/14
f 50/48/15 51/49/15 52/50/15
f 14/51/16 12/52/16 1/53/16
f 12/54/17 14/55/17 15/56/17 13/57/17
f 51/58/18 53/59/18 52/60/18
f 16/61/19 14/62/19 1/63/19
f 14/64/20 16/65/20 17/66/20 15/67/20
f 53/68/21 54/69/21 52/70/21
f 18/71/22 16/72/22 1/73/22
f 16/74/23 18/75/23 19/76/23 17/77/23
f 54/78/24 55/79/24 52/80/24
f 20/81/25 18/82/25 1/83/25
f 18/84/26 20/85/26 21/86/26 19/87/26
f 55/88/27 56/89/27 52/90/27
f 22/91/28 20/92/28 1/93/28
f 20/94/29 22/95/29 23/96/29 21/97/29
f 56/98/30 57/99/30 52/100/30
f 24/101/31 22/102/31 1/103/31
f 22/104/32 24/105/32 25/106/32 23/107/32
f 57/108/33 58/109/33 52/110/33
f 2/111/34 24/112/34 1/113/34
f 24/114/35 2/115/35 3/116/35 25/117/35
f 58/118/36 59/119/36 52/120/36
f 27/121/37 26/122/37 19/123/37 21/124/37
f 28/125/38 27/126/38 21/127/38 23/128/38
f 29/129/39 28/130/39 23/131/39 25/132/39
f 30/133/40 29/134/40 25/135/40 3/136/40
f 31/137/41 30/138/41 3/139/41 5/140/41
f 32/141/42 31/142/42 5/143/42 7/144/42
f 33/145/43 32/146/43 7/147/43 9/148/43
f 34/149/44 33/150/44 9/151/44 11/152/44
f 35/153/45 34/154/45 11/155/45 13/156/45
f 36/157/46 35/158/46 13/159/46 15/160/46
f 37/161/47 36/162/47 15/163/47 17/164/47
f 26/165/48 37/166/48 17/167/48 19/168/48
f 39/169/49 38/170/49 26/171/49 27/172/49
f 40/173/50 39/174/50 27/175/50 28/176/50
f 41/177/51 40/178/51 28/179/51 29/180/51
f 42/181/52 41/182/52 29/183/52 30/184/52
f 43/185/53 42/186/53 30/187/53 31/188/53
f 44/189/54 43/190/54 31/191/54 32/192/54
f 45/193/55 44/194/55 32/195/55 33/196/55
f 46/197/56 45/198/56 33/199/56 34/200/56
f 47/201/57 46/202/57 34/203/57 35/204/57
f 48/205/58 47/206/58 35/207/58 36/208/58
f 49/209/59 48/210/59 36/211/59 37/212/59
f 38/213/60 49/214/60 37/215/60 26/216/60
f 51/217/61 50/218/61 46/219/61 47/220/61
f 53/221/62 51/222/62 47/223/62 48/224/62
f 54/225/63 53/226/63 48/227/63 49/228/63
f 55/229/64 54/230/64 49/231/64 38/232/64
f 56/233/65 55/234/65 38/235/65 39/236/65
f 57/237/66 56/238/66 39/239/66 40/240/66
f 58/241/67 57/242/67 40/243/67 41/244/67
f 59/245/68 58/246/68 41/247/68 42/248/68
f 60/249/69 59/250/69 42/251/69 43/252/69
f 61/253/70 60/254/70 43/255/70 44/256/70
f 62/257/71 61/258/71 44/259/71 45/260/71
f 50/261/72 62/262/72 45/263/72 46/264/72