# Made in Blockbench 4.9.4
mtllib Slimeball.mtl

o sphere
v 0 0 0
v 0 1 0
v 0.07340662323459167 0.9330127018922194 0.24999999999999997
v 0.1271440010543788 0.75 0.43301270189221935
v 0.14681324646918337 0.5 0.5
v 0.12714400105437884 0.2500000000000001 0.4330127018922194
v 0.07340662323459167 0.06698729810778065 0.24999999999999997
v 0.1969137854932071 0.9330127018922194 0.17062676641559057
v 0.3410646811849541 0.75 0.2955342285629899
v 0.39382757098641424 0.5 0.3412535328311812
v 0.3410646811849541 0.2500000000000001 0.29553422856298994
v 0.1969137854932071 0.06698729810778065 0.17062676641559057
v 0.257902212184052 0.9330127018922194 0.03708074008535268
v 0.44669973488718734 0.75 0.06422572581008676
v 0.5158044243681041 0.5 0.07416148017070537
v 0.4466997348871874 0.2500000000000001 0.06422572581008676
v 0.257902212184052 0.06698729810778065 0.03708074008535268
v 0.2370085087564143 0.9330127018922194 -0.10823815922199516
v 0.41051077899224275 0.75 -0.18747399109022547
v 0.47401701751282865 0.5 -0.21647631844399037
v 0.4105107789922428 0.2500000000000001 -0.1874739910902255
v 0.2370085087564143 0.06698729810778065 -0.10823815922199516
v 0.1408662784207148 0.9330127018922194 -0.21919220775064735
v 0.24398755129782143 0.75 -0.37965204044731393
v 0.28173255684142967 0.5 -0.4383844155012948
v 0.24398755129782146 0.2500000000000001 -0.379652040447314
v 0.1408662784207148 0.06698729810778065 -0.21919220775064735
v 3.190869638508131e-17 0.9330127018922194 -0.26055427905660133
v 5.5267483342250204e-17 0.75 -0.451293249455513
v 6.381739277016263e-17 0.5 -0.5211085581132028
v 5.526748334225021e-17 0.2500000000000001 -0.4512932494555131
v 3.190869638508131e-17 0.06698729810778065 -0.26055427905660133
v -0.14086627842071484 0.9330127018922194 -0.21919220775064732
v -0.24398755129782146 0.75 -0.3796520404473139
v -0.2817325568414297 0.5 -0.43838441550129476
v -0.2439875512978215 0.2500000000000001 -0.37965204044731393
v -0.14086627842071484 0.06698729810778065 -0.21919220775064732
v -0.23700850875641416 0.9330127018922194 -0.10823815922199538
v -0.41051077899224253 0.75 -0.18747399109022583
v -0.47401701751282843 0.5 -0.2164763184439908
v -0.4105107789922426 0.2500000000000001 -0.18747399109022586
v -0.23700850875641416 0.06698729810778065 -0.10823815922199538
v -0.25790221218405207 0.9330127018922194 0.03708074008535255
v -0.4466997348871874 0.75 0.06422572581008654
v -0.5158044243681043 0.5 0.07416148017070512
v -0.44669973488718745 0.2500000000000001 0.06422572581008655
v -0.25790221218405207 0.06698729810778065 0.03708074008535255
v -0.19691378549320707 0.9330127018922194 0.17062676641559063
v -0.34106468118495403 0.75 0.29553422856299
v -0.3938275709864142 0.5 0.3412535328311813
v -0.34106468118495403 0.2500000000000001 0.29553422856299005
v -0.19691378549320707 0.06698729810778065 0.17062676641559063
v -0.0734066232345917 0.9330127018922194 0.24999999999999997
v -0.12714400105437887 0.75 0.43301270189221935
v -0.14681324646918342 0.5 0.5
v -0.1271440010543789 0.2500000000000001 0.4330127018922194
v -0.0734066232345917 0.06698729810778065 0.24999999999999997
vt 0 0.7411749999999999
vt 0.1468125 0.7411749999999999
vt 0.07340625 1
vt 0.053737499999999994 1
vt 0 0.7411749999999999
vt 0.2542875 0.7411749999999999
vt 0.20055 1
vt 0.019668750000000013 1
vt 0 0.7411749999999999
vt 0.293625 0.7411749999999999
vt 0.27395625 1
vt 0 1
vt 0.019668750000000013 0.7411749999999999
vt 0.27395625 0.7411749999999999
vt 0.293625 1
vt 0 1
vt 0.053737499999999994 0.7411749999999999
vt 0.20055 0.7411749999999999
vt 0.2542875 1
vt 0.1468125 1
vt 0 1
vt 0.07340625 0.7411749999999999
vt 0 0.7411749999999999
vt 0.1468125 0.7411749999999999
vt 0.07340625 1
vt 0.053737499999999994 1
vt 0 0.7411749999999999
vt 0.2542875 0.7411749999999999
vt 0.20055 1
vt 0.019668750000000013 1
vt 0 0.7411749999999999
vt 0.293625 0.7411749999999999
vt 0.27395625 1
vt 0 1
vt 0.019668750000000013 0.7411749999999999
vt 0.27395625 0.7411749999999999
vt 0.293625 1
vt 0 1
vt 0.053737499999999994 0.7411749999999999
vt 0.20055 0.7411749999999999
vt 0.2542875 1
vt 0.1468125 1
vt 0 1
vt 0.07340625 0.7411749999999999
vt 0 0.7411749999999999
vt 0.1468125 0.7411749999999999
vt 0.07340625 1
vt 0.053737499999999994 1
vt 0 0.7411749999999999
vt 0.2542875 0.7411749999999999
vt 0.20055 1
vt 0.019668750000000013 1
vt 0 0.7411749999999999
vt 0.293625 0.7411749999999999
vt 0.27395625 1
vt 0 1
vt 0.019668750000000013 0.7411749999999999
vt 0.27395625 0.7411749999999999
vt 0.293625 1
vt 0 1
vt 0.053737499999999994 0.7411749999999999
vt 0.20055 0.7411749999999999
vt 0.2542875 1
vt 0.1468125 1
vt 0 1
vt 0.07340625 0.7411749999999999
vt 0 0.7411749999999999
vt 0.1468125 0.7411749999999999
vt 0.07340625 1
vt 0.053737499999999994 1
vt 0 0.7411749999999999
vt 0.2542875 0.7411749999999999
vt 0.20055 1
vt 0.019668750000000013 1
vt 0 0.7411749999999999
vt 0.293625 0.7411749999999999
vt 0.27395625 1
vt 0 1
vt 0.019668750000000013 0.7411749999999999
vt 0.27395625 0.7411749999999999
vt 0.293625 1
vt 0 1
vt 0.053737499999999994 0.7411749999999999
vt 0.20055 0.7411749999999999
vt 0.2542875 1
vt 0.1468125 1
vt 0 1
vt 0.07340625 0.7411749999999999
vt 0 0.7411749999999999
vt 0.1468125 0.7411749999999999
vt 0.07340625 1
vt 0.053737499999999994 1
vt 0 0.7411749999999999
vt 0.2542875 0.7411749999999999
vt 0.20055 1
vt 0.019668750000000013 1
vt 0 0.7411749999999999
vt 0.293625 0.7411749999999999
vt 0.27395625 1
vt 0 1
vt 0.019668750000000013 0.7411749999999999
vt 0.27395625 0.7411749999999999
vt 0.293625 1
vt 0 1
vt 0.053737499999999994 0.7411749999999999
vt 0.20055 0.7411749999999999
vt 0.2542875 1
vt 0.1468125 1
vt 0 1
vt 0.07340625 0.7411749999999999
vt 0 0.7411749999999999
vt 0.1468125 0.7411749999999999
vt 0.07340625 1
vt 0.053737499999999994 1
vt 0 0.7411749999999999
vt 0.2542875 0.7411749999999999
vt 0.20055 1
vt 0.019668750000000013 1
vt 0 0.7411749999999999
vt 0.293625 0.7411749999999999
vt 0.27395625 1
vt 0 1
vt 0.019668750000000013 0.7411749999999999
vt 0.27395625 0.7411749999999999
vt 0.293625 1
vt 0 1
vt 0.053737499999999994 0.7411749999999999
vt 0.20055 0.7411749999999999
vt 0.2542875 1
vt 0.1468125 1
vt 0 1
vt 0.07340625 0.7411749999999999
vt 0 0.7411749999999999
vt 0.1468125 0.7411749999999999
vt 0.07340625 1
vt 0.053737499999999994 1
vt 0 0.7411749999999999
vt 0.2542875 0.7411749999999999
vt 0.20055 1
vt 0.019668750000000013 1
vt 0 0.7411749999999999
vt 0.293625 0.7411749999999999
vt 0.27395625 1
vt 0 1
vt 0.019668750000000013 0.7411749999999999
vt 0.27395625 0.7411749999999999
vt 0.293625 1
vt 0 1
vt 0.053737499999999994 0.7411749999999999
vt 0.20055 0.7411749999999999
vt 0.2542875 1
vt 0.1468125 1
vt 0 1
vt 0.07340625 0.7411749999999999
vt 0 0.7411749999999999
vt 0.1468125 0.7411749999999999
vt 0.07340625 1
vt 0.053737499999999994 1
vt 0 0.7411749999999999
vt 0.2542875 0.7411749999999999
vt 0.20055 1
vt 0.019668750000000013 1
vt 0 0.7411749999999999
vt 0.293625 0.7411749999999999
vt 0.27395625 1
vt 0 1
vt 0.019668750000000013 0.7411749999999999
vt 0.27395625 0.7411749999999999
vt 0.293625 1
vt 0 1
vt 0.053737499999999994 0.7411749999999999
vt 0.20055 0.7411749999999999
vt 0.2542875 1
vt 0.1468125 1
vt 0 1
vt 0.07340625 0.7411749999999999
vt 0 0.7411749999999999
vt 0.1468125 0.7411749999999999
vt 0.07340625 1
vt 0.053737499999999994 1
vt 0 0.7411749999999999
vt 0.2542875 0.7411749999999999
vt 0.20055 1
vt 0.019668750000000013 1
vt 0 0.7411749999999999
vt 0.293625 0.7411749999999999
vt 0.27395625 1
vt 0 1
vt 0.019668750000000013 0.7411749999999999
vt 0.27395625 0.7411749999999999
vt 0.293625 1
vt 0 1
vt 0.053737499999999994 0.7411749999999999
vt 0.20055 0.7411749999999999
vt 0.2542875 1
vt 0.1468125 1
vt 0 1
vt 0.07340625 0.7411749999999999
vt 0 0.7411749999999999
vt 0.1468125 0.7411749999999999
vt 0.07340625 1
vt 0.053737499999999994 1
vt 0 0.7411749999999999
vt 0.2542875 0.7411749999999999
vt 0.20055 1
vt 0.019668750000000013 1
vt 0 0.7411749999999999
vt 0.293625 0.7411749999999999
vt 0.27395625 1
vt 0 1
vt 0.019668750000000013 0.7411749999999999
vt 0.27395625 0.7411749999999999
vt 0.293625 1
vt 0 1
vt 0.053737499999999994 0.7411749999999999
vt 0.20055 0.7411749999999999
vt 0.2542875 1
vt 0.1468125 1
vt 0 1
vt 0.07340625 0.7411749999999999
vt 0 0.7411749999999999
vt 0.1468125 0.7411749999999999
vt 0.07340625 1
vt 0.053737499999999994 1
vt 0 0.7411749999999999
vt 0.2542875 0.7411749999999999
vt 0.20055 1
vt 0.019668750000000013 1
vt 0 0.7411749999999999
vt 0.293625 0.7411749999999999
vt 0.27395625 1
vt 0 1
vt 0.019668750000000013 0.7411749999999999
vt 0.27395625 0.7411749999999999
vt 0.293625 1
vt 0 1
vt 0.053737499999999994 0.7411749999999999
vt 0.20055 0.7411749999999999
vt 0.2542875 1
vt 0.1468125 1
vt 0 1
vt 0.07340625 0.7411749999999999
vn 0.13992814011730384 0.9659258262890684 0.21773243605648818
vn 0.3822907882090914 0.7071067811865475 0.5948560777620682
vn 0.5222189283263953 0.25881904510252074 0.8125885138185567
vn 0.5222189283263955 -0.25881904510252063 0.8125885138185567
vn 0.3822907882090913 -0.7071067811865476 0.5948560777620684
vn 0.13992814011730395 -0.9659258262890684 0.21773243605648837
vn 0.2354300844323568 0.9659258262890683 0.10751731698639938
vn 0.6432069522994301 0.7071067811865476 0.2937427727003318
vn 0.8786370367317872 0.2588190451025207 0.4012600896867312
vn 0.8786370367317871 -0.25881904510252074 0.4012600896867313
vn 0.6432069522994301 -0.7071067811865475 0.29374277270033167
vn 0.23543008443235705 -0.9659258262890683 0.10751731698639946
vn 0.256184640409623 0.9659258262890684 -0.036833790545811186
vn 0.6999094537178537 0.7071067811865476 -0.10063178720650656
vn 0.9560940941274771 0.2588190451025208 -0.13746557775231782
vn 0.956094094127477 -0.25881904510252063 -0.13746557775231782
vn 0.6999094537178538 -0.7071067811865475 -0.10063178720650638
vn 0.25618464040962324 -0.9659258262890684 -0.036833790545811214
vn 0.19560238317100542 0.9659258262890684 -0.1694904298348544
vn 0.5343956489047431 0.7071067811865474 -0.46305646570551057
vn 0.7299980320757488 0.25881904510252085 -0.632546895540365
vn 0.7299980320757486 -0.2588190451025208 -0.6325468955403653
vn 0.534395648904743 -0.7071067811865475 -0.4630564657055108
vn 0.1956023831710056 -0.9659258262890684 -0.16949042983485452
vn 0.07291775133599036 0.9659258262890684 -0.24833505521348206
vn 0.19921500142359935 0.7071067811865476 -0.6784639881436563
vn 0.2721327527595897 0.25881904510252096 -0.9267990433571387
vn 0.27213275275958976 -0.25881904510252085 -0.9267990433571388
vn 0.19921500142359927 -0.7071067811865476 -0.6784639881436563
vn 0.07291775133599042 -0.9659258262890684 -0.2483350552134823
vn -0.07291775133599036 0.9659258262890684 -0.24833505521348206
vn -0.19921500142359932 0.7071067811865474 -0.6784639881436564
vn -0.27213275275958976 0.2588190451025209 -0.9267990433571388
vn -0.2721327527595898 -0.2588190451025208 -0.9267990433571387
vn -0.19921500142359944 -0.7071067811865475 -0.6784639881436564
vn -0.07291775133599043 -0.9659258262890684 -0.24833505521348234
vn -0.19560238317100542 0.9659258262890685 -0.16949042983485443
vn -0.534395648904743 0.7071067811865475 -0.4630564657055108
vn -0.7299980320757484 0.25881904510252096 -0.6325468955403653
vn -0.7299980320757485 -0.2588190451025209 -0.6325468955403654
vn -0.5343956489047429 -0.7071067811865475 -0.46305646570551073
vn -0.1956023831710055 -0.9659258262890683 -0.16949042983485454
vn -0.25618464040962297 0.9659258262890684 -0.0368337905458115
vn -0.6999094537178536 0.7071067811865475 -0.10063178720650724
vn -0.9560940941274769 0.2588190451025209 -0.13746557775231882
vn -0.9560940941274768 -0.25881904510252074 -0.13746557775231877
vn -0.6999094537178538 -0.7071067811865475 -0.10063178720650733
vn -0.25618464040962324 -0.9659258262890684 -0.03683379054581153
vn -0.2354300844323568 0.9659258262890684 0.10751731698639935
vn -0.6432069522994303 0.7071067811865475 0.29374277270033167
vn -0.8786370367317871 0.2588190451025209 0.4012600896867312
vn -0.8786370367317871 -0.25881904510252085 0.40126008968673116
vn -0.6432069522994303 -0.7071067811865475 0.29374277270033167
vn -0.235430084432357 -0.9659258262890684 0.10751731698639945
vn -0.13992814011730384 0.9659258262890685 0.21773243605648823
vn -0.38229078820909124 0.7071067811865476 0.5948560777620682
vn -0.5222189283263953 0.25881904510252074 0.8125885138185567
vn -0.5222189283263954 -0.2588190451025207 0.8125885138185568
vn -0.38229078820909135 -0.7071067811865476 0.5948560777620683
vn -0.13992814011730392 -0.9659258262890683 0.21773243605648834
vn 0 0.9659258262890684 0.2588190451025205
vn 0 0.7071067811865475 0.7071067811865476
vn 0 0.25881904510252074 0.9659258262890684
vn 0 -0.2588190451025206 0.9659258262890684
vn 0 -0.7071067811865475 0.7071067811865477
vn 0 -0.9659258262890684 0.25881904510252074
usemtl none
f 3/1/1 8/2/1 2/3/1
f 3/4/2 4/5/2 9/6/2 8/7/2
f 4/8/3 5/9/3 10/10/3 9/11/3
f 5/12/4 6/13/4 11/14/4 10/15/4
f 6/16/5 7/17/5 12/18/5 11/19/5
f 12/20/6 7/21/6 1/22/6
f 8/23/7 13/24/7 2/25/7
f 8/26/8 9/27/8 14/28/8 13/29/8
f 9/30/9 10/31/9 15/32/9 14/33/9
f 10/34/10 11/35/10 16/36/10 15/37/10
f 11/38/11 12/39/11 17/40/11 16/41/11
f 17/42/12 12/43/12 1/44/12
f 13/45/13 18/46/13 2/47/13
f 13/48/14 14/49/14 19/50/14 18/51/14
f 14/52/15 15/53/15 20/54/15 19/55/15
f 15/56/16 16/57/16 21/58/16 20/59/16
f 16/60/17 17/61/17 22/62/17 21/63/17
f 22/64/18 17/65/18 1/66/18
f 18/67/19 23/68/19 2/69/19
f 18/70/20 19/71/20 24/72/20 23/73/20
f 19/74/21 20/75/21 25/76/21 24/77/21
f 20/78/22 21/79/22 26/80/22 25/81/22
f 21/82/23 22/83/23 27/84/23 26/85/23
f 27/86/24 22/87/24 1/88/24
f 23/89/25 28/90/25 2/91/25
f 23/92/26 24/93/26 29/94/26 28/95/26
f 24/96/27 25/97/27 30/98/27 29/99/27
f 25/100/28 26/101/28 31/102/28 30/103/28
f 26/104/29 27/105/29 32/106/29 31/107/29
f 32/108/30 27/109/30 1/110/30
f 28/111/31 33/112/31 2/113/31
f 28/114/32 29/115/32 34/116/32 33/117/32
f 29/118/33 30/119/33 35/120/33 34/121/33
f 30/122/34 31/123/34 36/124/34 35/125/34
f 31/126/35 32/127/35 37/128/35 36/129/35
f 37/130/36 32/131/36 1/132/36
f 33/133/37 38/134/37 2/135/37
f 33/136/38 34/137/38 39/138/38 38/139/38
f 34/140/39 35/141/39 40/142/39 39/143/39
f 35/144/40 36/145/40 41/146/40 40/147/40
f 36/148/41 37/149/41 42/150/41 41/151/41
f 42/152/42 37/153/42 1/154/42
f 38/155/43 43/156/43 2/157/43
f 38/158/44 39/159/44 44/160/44 43/161/44
f 39/162/45 40/163/45 45/164/45 44/165/45
f 40/166/46 41/167/46 46/168/46 45/169/46
f 41/170/47 42/171/47 47/172/47 46/173/47
f 47/174/48 42/175/48 1/176/48
f 43/177/49 48/178/49 2/179/49
f 43/180/50 44/181/50 49/182/50 48/183/50
f 44/184/51 45/185/51 50/186/51 49/187/51
f 45/188/52 46/189/52 51/190/52 50/191/52
f 46/192/53 47/193/53 52/194/53 51/195/53
f 52/196/54 47/197/54 1/198/54
f 48/199/55 53/200/55 2/201/55
f 48/202/56 49/203/56 54/204/56 53/205/56
f 49/206/57 50/207/57 55/208/57 54/209/57
f 50/210/58 51/211/58 56/212/58 55/213/58
f 51/214/59 52/215/59 57/216/59 56/217/59
f 57/218/60 52/219/60 1/220/60
f 53/221/61 3/222/61 2/223/61
f 53/224/62 54/225/62 4/226/62 3/227/62
f 54/228/63 55/229/63 5/230/63 4/231/63
f 55/232/64 56/233/64 6/234/64 5/235/64
f 56/236/65 57/237/65 7/238/65 6/239/65
f 7/240/66 57/241/66 1/242/66