# Made in Blockbench 4.9.4
mtllib Spear.mtl

o cylinder
v 0.025000000000000015 0 0.007766504294495479
v 0.010355339059327402 0 0.018749999999999937
v 2.6367796834847467e-17 0 -5.342948306008566e-17
v 0.025000000000000015 1.2500000000000002 0.007766504294495479
v 0.010355339059327402 1.2500000000000002 0.018749999999999937
v 2.6367796834847467e-17 1.2500000000000002 -5.342948306008566e-17
v 0.025000000000000015 0 -0.007766504294495583
v 0.025000000000000015 1.2500000000000002 -0.007766504294495583
v 0.010355339059327404 0 -0.018750000000000048
v 0.010355339059327404 1.2500000000000002 -0.018750000000000048
v -0.010355339059327347 0 -0.018750000000000048
v -0.010355339059327347 1.2500000000000002 -0.018750000000000048
v -0.02499999999999996 0 -0.007766504294495595
v -0.02499999999999996 1.2500000000000002 -0.007766504294495595
v -0.02499999999999996 0 0.007766504294495482
v -0.02499999999999996 1.2500000000000002 0.007766504294495482
v -0.010355339059327366 0 0.018749999999999933
v -0.010355339059327366 1.2500000000000002 0.018749999999999933
vt 0.653125 0.38825937499999996
vt 0.645803125 0.39375000000000004
vt 0.640625 0.384375
vt 0.375 0.375
vt 0.40625 0.375
vt 0.40625 1
vt 0.375 1
vt 0.020803125 0.32499999999999996
vt 0.028125 0.33049062500000004
vt 0.015625 0.334375
vt 0.653125 0.38049062499999997
vt 0.653125 0.38825937499999996
vt 0.640625 0.384375
vt 0 0.375
vt 0.03125 0.375
vt 0.03125 1
vt 0 1
vt 0.028125 0.33049062500000004
vt 0.028125 0.33825937500000003
vt 0.015625 0.334375
vt 0.645803125 0.375
vt 0.653125 0.38049062499999997
vt 0.640625 0.384375
vt 0.25 0.375
vt 0.28125 0.375
vt 0.28125 1
vt 0.25 1
vt 0.028125 0.33825937500000003
vt 0.020803125 0.34375
vt 0.015625 0.334375
vt 0.635446875 0.375
vt 0.645803125 0.375
vt 0.640625 0.384375
vt 0.0625 0.375
vt 0.09375 0.375
vt 0.09375 1
vt 0.0625 1
vt 0.020803125 0.34375
vt 0.010446875000000001 0.34375
vt 0.015625 0.334375
vt 0.628125 0.38049062499999997
vt 0.635446875 0.375
vt 0.640625 0.384375
vt 0.4375 0.375
vt 0.46875 0.375
vt 0.46875 1
vt 0.4375 1
vt 0.010446875000000001 0.34375
vt 0.0031249999999999993 0.33825937500000003
vt 0.015625 0.334375
vt 0.628125 0.38825937499999996
vt 0.628125 0.38049062499999997
vt 0.640625 0.384375
vt 0.125 0.375
vt 0.15625 0.375
vt 0.15625 1
vt 0.125 1
vt 0.0031249999999999993 0.33825937500000003
vt 0.0031249999999999993 0.33049062500000004
vt 0.015625 0.334375
vt 0.635446875 0.39375000000000004
vt 0.628125 0.38825937499999996
vt 0.640625 0.384375
vt 0.3125 0.375
vt 0.34375 0.375
vt 0.34375 1
vt 0.3125 1
vt 0.0031249999999999993 0.33049062500000004
vt 0.010446875000000001 0.32499999999999996
vt 0.015625 0.334375
vt 0.645803125 0.39375000000000004
vt 0.635446875 0.39375000000000004
vt 0.640625 0.384375
vt 0.1875 0.375
vt 0.21875 0.375
vt 0.21875 1
vt 0.1875 1
vt 0.010446875000000001 0.32499999999999996
vt 0.020803125 0.32499999999999996
vt 0.015625 0.334375
vn 0 -1 0
vn 0.6 0 0.8
vn 0 1 0
vn 0 -1 0
vn 1 0 0
vn 0 1 0
vn 0 -1 0
vn 0.6000000000000003 0 -0.7999999999999998
vn 0 1 0
vn 0 -1 0
vn 0 0 -1
vn 0 1 0
vn 0 -1 0
vn -0.5999999999999998 0 -0.8000000000000003
vn 0 1 0
vn 0 -1 0
vn -1 0 0
vn 0 1 0
vn 0 -1 0
vn -0.6000000000000002 0 0.7999999999999998
vn 0 1 0
vn 0 -1 0
vn -1.6751971770680808e-16 0 1
vn 0 1 0
usemtl m_071eb987-8d7f-e3f3-f7d7-4d0861bfffdc
f 1/1/1 2/2/1 3/3/1
f 2/4/2 1/5/2 4/6/2 5/7/2
f 5/8/3 4/9/3 6/10/3
f 7/11/4 1/12/4 3/13/4
f 1/14/5 7/15/5 8/16/5 4/17/5
f 4/18/6 8/19/6 6/20/6
f 9/21/7 7/22/7 3/23/7
f 7/24/8 9/25/8 10/26/8 8/27/8
f 8/28/9 10/29/9 6/30/9
f 11/31/10 9/32/10 3/33/10
f 9/34/11 11/35/11 12/36/11 10/37/11
f 10/38/12 12/39/12 6/40/12
f 13/41/13 11/42/13 3/43/13
f 11/44/14 13/45/14 14/46/14 12/47/14
f 12/48/15 14/49/15 6/50/15
f 15/51/16 13/52/16 3/53/16
f 13/54/17 15/55/17 16/56/17 14/57/17
f 14/58/18 16/59/18 6/60/18
f 17/61/19 15/62/19 3/63/19
f 15/64/20 17/65/20 18/66/20 16/67/20
f 16/68/21 18/69/21 6/70/21
f 2/71/22 17/72/22 3/73/22
f 17/74/23 2/75/23 5/76/23 18/77/23
f 18/78/24 5/79/24 6/80/24
o cuboid
v 0.037499999999999964 1.4437499999999996 -0.006249999999999992
v 0.037499999999999964 1.4437499999999996 0.006249999999999992
v 0.024999999999999967 1.25 0.006249999999999992
v 0.024999999999999967 1.25 -0.006249999999999992
v -0.024999999999999967 1.25 0.006249999999999992
v -0.03749999999999997 1.4437499999999996 0.006249999999999992
v -0.03749999999999997 1.4437499999999996 -0.006249999999999992
v -0.024999999999999967 1.25 -0.006249999999999992
v 0 1.5625 0.006249999999999992
v 0 1.5625 -0.006249999999999992
v 0 1.25 -0.018749999999999996
v 0 1.25 0.018749999999999996
v 0 1.4375 0.018749999999999996
v 0 1.4375 -0.018749999999999996
vt 0.56953125 0.5892624999999999
vt 0.56328125 0.5892624999999999
vt 0.56328125 0.4921875
vt 0.56953125 0.4921875
vt 0.56953125 0.2734375
vt 0.56953125 0.3705124999999999
vt 0.56328125 0.3705124999999999
vt 0.56328125 0.2734375
vt 0.56953125 0.3705124999999999
vt 0.56953125 0.4249656249999999
vt 0.56328125 0.4249656249999999
vt 0.56328125 0.3705124999999999
vt 0.628125 0.4515625
vt 0.640625 0.4453125
vt 0.640625 0.45625000000000004
vt 0.628125 0.45781249999999996
vt 0.5056662510097704 0.40598564397121073
vt 0.5196412467512337 0.4059965538787661
vt 0.5195680586415155 0.4997465253107649
vt 0.5 0.50285625
vt 0.5234375 0.940342046670744
vt 0.503671875 0.9372170466707439
vt 0.503671875 0.8434670466707439
vt 0.517509375 0.8434670466707439
vt 0.5234375 0.721592046670744
vt 0.503671875 0.7184670466707439
vt 0.503671875 0.6247170466707439
vt 0.517509375 0.6247170466707439
vt 0.653125 0.45781249999999996
vt 0.640625 0.45625000000000004
vt 0.640625 0.4453125
vt 0.653125 0.4515625
vt 0.5681662510097704 0.8434856439712107
vt 0.5821412467512337 0.8434965538787661
vt 0.5820680586415155 0.9372465253107649
vt 0.5625 0.94035625
vt 0.56953125 0.5892624999999999
vt 0.56953125 0.6437156249999999
vt 0.56328125 0.6437156249999999
vt 0.56328125 0.5892624999999999
vt 0.580375 1
vt 0.5625 0.94035625
vt 0.5822625 0.937215625
vt 0.517875 0.5625
vt 0.5 0.50285625
vt 0.5197625 0.499715625
vt 0.5234375 0.940342046670744
vt 0.5056099610888993 1
vt 0.5036725074233536 0.9372171466586259
vt 0.5234375 0.721592046670744
vt 0.5056099610888993 0.78125
vt 0.5036725074233536 0.7184671466586259
vn 0.9979253089684583 -0.06438227799796517 0
vn -0.9979253089684583 -0.0643822779979652 0
vn -0.9535826651341421 0.3011313679370964 0
vn 0 -1 0
vn -0.44721359549995865 0 0.8944271909999157
vn -0.3162277660168383 0 -0.9486832980505139
vn 0.31622776601683833 0 0.9486832980505137
vn 0 -1 0
vn 0.44721359549995865 0 -0.8944271909999157
vn 0.9535826651341421 0.30113136793709633 0
vn 0.3005290972663521 0.09490392545253186 -0.9490392545253182
vn -0.300529097266352 0.09490392545253186 0.9490392545253182
vn -0.300529097266352 0.09490392545253186 -0.9490392545253182
vn 0.3005290972663521 0.09490392545253186 0.9490392545253182
usemtl m_071eb987-8d7f-e3f3-f7d7-4d0861bfffdc
f 19/81/25 20/82/25 21/83/25 22/84/25
f 23/85/26 24/86/26 25/87/26 26/88/26
f 24/89/27 27/90/27 28/91/27 25/92/27
f 26/93/28 29/94/28 30/95/28 23/96/28
f 23/97/29 30/98/29 31/99/29 24/100/29
f 25/101/30 32/102/30 29/103/30 26/104/30
f 20/105/31 31/106/31 30/107/31 21/108/31
f 21/109/32 30/110/32 29/111/32 22/112/32
f 22/113/33 29/114/33 32/115/33 19/116/33
f 19/117/34 28/118/34 27/119/34 20/120/34
f 28/121/35 19/122/35 32/123/35
f 27/124/36 24/125/36 31/126/36
f 25/127/37 28/128/37 32/129/37
f 20/130/38 27/131/38 31/132/38
o cuboid
v 0.07499999999999998 1.1937499999999994 -0.014423076923076915
v 0.07499999999999998 1.1937499999999994 0.014423076923076915
v 0.07499999999999998 1.1562499999999998 0.014423076923076915
v 0.07499999999999998 1.1562499999999998 -0.014423076923076915
v -0.07499999999999998 1.1562499999999998 0.014423076923076915
v -0.07499999999999998 1.1937499999999994 0.014423076923076915
v -0.07499999999999998 1.1937499999999994 -0.014423076923076915
v -0.07499999999999998 1.1562499999999998 -0.014423076923076915
v 0 1.1937499999999994 0.031249999999999993
v 0 1.1937499999999994 -0.031249999999999993
v 0 1.1562499999999998 -0.031249999999999993
v 0 1.1562499999999998 0.031249999999999993
vt 0.65625 1
vt 0.625 1
vt 0.625 0.96875
vt 0.65625 0.96875
vt 0.65625 0.90625
vt 0.65625 0.9375
vt 0.625 0.9375
vt 0.625 0.90625
vt 0.5640625 0.7584124999999999
vt 0.6015625 0.75
vt 0.6015625 0.78125
vt 0.5640625 0.7728375000000001
vt 0.5640625 0.6959124999999999
vt 0.6015625 0.6875
vt 0.6015625 0.71875
vt 0.5640625 0.7103375000000001
vt 0.625 0.84375
vt 0.65625 0.84375
vt 0.65625 0.875
vt 0.625 0.875
vt 0.65625 0.65625
vt 0.625 0.65625
vt 0.625 0.625
vt 0.65625 0.625
vt 0.65625 0.59375
vt 0.625 0.59375
vt 0.625 0.5625
vt 0.65625 0.5625
vt 0.6390625 0.7103375000000001
vt 0.6015625 0.71875
vt 0.6015625 0.6875
vt 0.6390625 0.6959124999999999
vt 0.625 0.5
vt 0.65625 0.5
vt 0.65625 0.53125
vt 0.625 0.53125
vt 0.6390625 0.7728375000000001
vt 0.6015625 0.78125
vt 0.6015625 0.75
vt 0.6390625 0.7584124999999999
vn 1 0 0
vn -1 0 0
vn 0 1 0
vn 0 -1 0
vn -0.2189168166017785 0 0.9757435254250696
vn -0.2189168166017785 0 -0.9757435254250696
vn 0.2189168166017785 0 0.9757435254250696
vn 0 -1 0
vn 0.2189168166017785 0 -0.9757435254250696
vn 0 1 0
usemtl m_071eb987-8d7f-e3f3-f7d7-4d0861bfffdc
f 33/133/39 34/134/39 35/135/39 36/136/39
f 37/137/40 38/138/40 39/139/40 40/140/40
f 38/141/41 41/142/41 42/143/41 39/144/41
f 40/145/42 43/146/42 44/147/42 37/148/42
f 37/149/43 44/150/43 41/151/43 38/152/43
f 39/153/44 42/154/44 43/155/44 40/156/44
f 34/157/45 41/158/45 44/159/45 35/160/45
f 35/161/46 44/162/46 43/163/46 36/164/46
f 36/165/47 43/166/47 42/167/47 33/168/47
f 33/169/48 42/170/48 41/171/48 34/172/48